<svg viewBox="0 0 540 176" fill="none" xmlns="http://www.w3.org/2000/svg">
<path d="M107.769 0C113.848 0 118.301 5.73553 116.83 11.6504L109.225 42.1934H51.6715L41.1637 84.3867H75.2799C83.4762 84.3868 87.6946 94.2394 82.0514 100.217L10.7291 175.672L31.7145 91.4189H9.34337C3.26432 91.4189 -1.18823 85.6834 0.282827 79.7686L11.3981 35.1611H37.8238L46.5807 0H107.769ZM290.108 39.502C299.511 39.502 307.823 41.398 314.853 45.1895C321.871 48.981 327.32 54.3922 331.2 61.4229C335.067 68.4534 337 76.8021 337 86.4941C337 96.1861 335.042 104.334 331.137 111.402C327.233 118.471 321.759 123.907 314.741 127.749C307.71 131.578 299.511 133.499 290.108 133.499V133.486C280.717 133.486 272.507 131.553 265.476 127.687C258.446 123.82 252.984 118.37 249.08 111.34C245.175 104.309 243.216 96.0357 243.216 86.4941C243.216 76.9526 245.175 68.5532 249.08 61.5352C252.984 54.5047 258.446 49.0811 265.476 45.252C272.507 41.4229 280.705 39.502 290.108 39.502ZM392.679 39.4893C400.413 39.4893 407.256 40.82 413.194 43.4941C419.132 46.1557 423.978 49.9726 427.732 54.9316C431.486 59.8907 433.859 65.8293 434.838 72.7344H412.755C412.001 68.1521 409.867 64.5865 406.327 62.0254C402.799 59.4768 398.254 58.1963 392.692 58.1963C387.432 58.1963 382.849 59.3631 378.945 61.6855C375.04 64.0207 372.027 67.3233 369.93 71.6045C367.821 75.8855 366.779 80.9575 366.779 86.8203C366.779 92.6833 367.872 97.9062 370.044 102.263C372.228 106.619 375.304 109.984 379.284 112.356C383.264 114.717 387.959 115.91 393.37 115.91C397.349 115.91 400.903 115.295 404.016 114.052C407.13 112.809 409.591 111.126 411.399 108.979C413.207 106.833 414.11 104.409 414.11 101.71V99.0107H391.675V82.7783H419.961C424.92 82.7783 428.636 83.9583 431.122 86.3311C433.595 88.6913 434.838 92.2444 434.838 96.9775V132.143H415.454V122.451H414.889C412.705 126.13 409.591 128.891 405.536 130.736C401.481 132.582 396.484 133.499 390.546 133.499L390.52 133.486C381.657 133.486 373.835 131.515 367.081 127.573C360.314 123.631 355.04 118.119 351.249 111.063C347.457 104.008 345.562 95.8474 345.562 86.6074C345.562 77.3672 347.52 68.8798 351.424 61.8115C355.329 54.7558 360.841 49.257 367.934 45.3525C375.04 41.4481 383.276 39.4893 392.679 39.4893ZM492.343 39.502C501.747 39.502 510.058 41.398 517.088 45.1895C524.107 48.981 529.556 54.3922 533.435 61.4229C537.302 68.4534 539.235 76.8021 539.235 86.4941C539.235 96.1861 537.277 104.334 533.373 111.402C529.468 118.471 523.994 123.907 516.976 127.749C509.946 131.578 501.747 133.499 492.343 133.499V133.486C482.953 133.486 474.742 131.553 467.712 127.687C460.681 123.82 455.22 118.37 451.315 111.34C447.411 104.309 445.452 96.0357 445.452 86.4941C445.452 76.9526 447.411 68.5532 451.315 61.5352C455.22 54.5047 460.681 49.0811 467.712 45.252C474.742 41.4229 482.94 39.502 492.343 39.502ZM236.281 59.3262H190.97V76.9023H232.225V95.3828H190.97V132.131H169.779V40.8457H236.281V59.3262ZM290.108 57.9824C281.847 57.9825 275.582 60.5567 271.113 65.7041C266.644 70.8514 264.409 77.7436 264.409 86.3809C264.409 95.0184 266.644 102.049 271.113 107.234C275.582 112.419 281.948 115.006 290.221 115.006C298.407 115.006 304.722 112.419 309.154 107.234C313.586 102.049 315.807 95.1442 315.807 86.4941C315.807 77.8442 313.585 70.8515 309.154 65.7041C304.722 60.5567 298.369 57.9824 290.108 57.9824ZM492.343 57.9824C484.082 57.9825 477.818 60.5567 473.348 65.7041C468.879 70.8514 466.644 77.7436 466.644 86.3809C466.644 95.0184 468.879 102.049 473.348 107.234C477.818 112.419 484.183 115.006 492.457 115.006C500.642 115.006 506.957 112.419 511.389 107.234C515.821 102.049 518.043 95.1442 518.043 86.4941C518.043 77.8442 515.821 70.8515 511.389 65.7041C506.957 60.5567 500.604 57.9824 492.343 57.9824Z" fill="#FF3D00"/>
</svg>
